<svg viewBox="-24.00 -275.45 1302.70 397.64" xmlns="http://www.w3.org/2000/svg">
<g fill="#FAF7F2" transform="translate(-56.13, -300.98) scale(1.65079)"><path d="M 206,30 L 126,130 L 34,130 C 34,52 108,12 206,30 Z"/>
<path d="M 34,210 L 114,110 L 206,110 C 206,188 132,228 34,210 Z"/></g>
<g transform="translate(370.34, 0)" fill="#FAF7F2"><path d="M107.9392977627841 5.0302956321022725Q83.3333407315341 5.0302956321022725 64.5454989346591 -0.6363525390625Q45.75765713778409 -6.3030007102272725 33.09099786931819 -17.030251242897727Q20.424338600852273 -27.757501775568183 14.394031871448863 -43.15143377130682Q8.363725142045455 -58.54536576704545 9.212224786931818 -77.75752397017045L58.12062766335227 -88.2421875Q58.30237926136364 -70.18141867897728 65.21153675426137 -59.24195445667614Q72.1206942471591 -48.302490234375 84.0299072265625 -43.27217240767045Q95.9391202059659 -38.241854580965914 110.30286754261364 -38.241854580965914Q122.96974875710228 -38.241854580965914 132.4850408380682 -41.45403497869319Q142.0003329190341 -44.66621537642045 147.45494495738637 -50.51481489701705Q152.90955699573865 -56.36341441761364 152.90955699573865 -64.302978515625Q152.90955699573865 -74.42436079545455 145.7276611328125 -80.63655229048295Q138.54576526988637 -86.84874378551136 126.33355158025569 -91.0002774325284Q114.121337890625 -95.15181107954545 99.15158913352273 -99.03058416193183Q83.5152254971591 -103.21238014914773 68.09098677201705 -108.33357377485797Q52.666748046875 -113.45476740056819 39.96978204900568 -121.30323375355114Q27.272816051136363 -129.1517001065341 19.515247691761363 -141.69713245738637Q11.757679332386363 -154.24256480823865 11.757679332386363 -172.90920188210228Q11.757679332386363 -195.51518110795456 23.24248712713068 -211.66667036576706Q34.727294921875 -227.81815962357956 55.272705078125 -236.42422762784093Q75.818115234375 -245.03029563210228 102.6665926846591 -245.03029563210228Q130.4847079190341 -245.03029563210228 152.0906982421875 -235.6666925603693Q173.6966885653409 -226.30308948863637 185.42392800071025 -208.15162242542613Q197.15116743607956 -190.0001553622159 194.84816672585228 -163.4547452059659L146.60642311789772 -155.5154474431818Q147.21251331676137 -166.9700594815341 144.36399147727275 -175.72768332741478Q141.5154696377841 -184.48530717329547 135.63660777698863 -190.54594282670456Q129.7577459161932 -196.60657848011365 121.03038441051137 -199.78840775923297Q112.30302290482955 -202.97023703835228 100.84841086647728 -202.97023703835228Q88.42402787642045 -202.97023703835228 79.9390536221591 -199.5762384588068Q71.45407936789773 -196.18223987926137 66.99945623224433 -190.21243563565343Q62.544833096590914 -184.24263139204547 62.544833096590914 -176.42429421164772Q62.544833096590914 -167.2119806463068 69.12068314985795 -161.4240167791193Q75.696533203125 -155.6360529119318 87.48451926491478 -151.69664417613637Q99.27250532670455 -147.7572354403409 114.54527698863636 -143.81784889914772Q130.2422540838068 -139.6360529119318 145.939208984375 -134.5148592862216Q161.6361638849432 -129.39366566051137 174.9391756924716 -121.0906649502841Q188.2421875 -112.78766424005683 196.27247203480113 -99.63618607954547Q204.30275656960228 -86.4847079190341 204.30275656960228 -66.30295632102273Q204.30275656960228 -42.78786399147727 192.0603693181818 -26.90909090909091Q179.81798206676137 -11.030317826704545 158.15135609019887 -3.0000110973011362Q136.48473011363637 5.0302956321022725 107.9392977627841 5.0302956321022725Z M225.33345170454547 0.0V-190.90895774147728H277.8175159801136V0.0ZM251.2724609375 -207.1516779119318Q236.06052468039775 -207.1516779119318 228.0303289240057 -213.63645241477272Q220.00013316761365 -220.12122691761363 220.00013316761365 -232.31671385939993Q220.00013316761365 -244.8418085563696 228.0621296471121 -251.2691597824462Q236.12412612661052 -257.69651100852275 251.26093584321984 -257.69651100852275Q266.726806640625 -257.69651100852275 274.75700239701706 -251.12083851207387Q282.7871981534091 -244.545166015625 282.7871981534091 -232.2422762784091Q282.7871981534091 -220.35725599955143 274.744374593099 -213.75446695574163Q266.70155103278887 -207.1516779119318 251.2724609375 -207.1516779119318Z M381.5152033025568 56.84841086647727Q349.2727938565341 56.84841086647727 330.6061567826705 51.78780850497159Q311.9395197088068 46.727206143465914 304.0910533558239 37.909035422585234Q296.24258700284093 29.090864701704547 296.24258700284093 17.636341441761363Q296.24258700284093 1.8181818181818183 308.93955300071025 -7.969715465198864Q321.63651899857956 -17.757612748579547 346.48506303267044 -21.697043678977273V-23.87890625Q327.33347389914775 -23.87890625 316.8789395419034 -29.818248401988637Q306.42440518465907 -35.75759055397727 306.42440518465907 -46.72725053267045Q306.42440518465907 -56.969637784090914 316.06076882102275 -64.96959339488637Q325.6971324573864 -72.96954900568183 347.93960848721593 -74.06059126420455V-76.84849964488636Q327.3334295099432 -81.21209161931819 315.69706587357956 -94.75755726207387Q304.06070223721593 -108.30302290482955 304.06070223721593 -129.21204723011363Q304.06070223721593 -147.87868430397728 313.7576793323864 -161.63625266335228Q323.4546564275568 -175.39382102272728 341.7879638671875 -183.15138938210228Q360.1212713068182 -190.90895774147728 385.8787508877841 -190.90895774147728H481.0908203125V-149.8185369318182L416.0606134588068 -158.12155983664772V-155.03062855113637Q444.8483220880682 -150.90940163352272 455.4240611683239 -140.87905051491475Q465.99980024857956 -130.8486993963068 465.99980024857956 -116.90924627130683Q465.99980024857956 -103.03040660511364 457.69675514914775 -92.09096457741478Q449.3937100497159 -81.1515225497159 432.393721147017 -74.93937544389205Q415.3937322443182 -68.72722833806819 389.63620827414775 -68.72722833806819Q381.9998890269886 -68.72722833806819 374.48481889204544 -69.3938876065341Q366.96974875710225 -70.060546875 361.0303400213068 -71.51509232954545Q352.72705078125 -68.3028897372159 348.7572909268466 -65.06040261008522Q344.7875310724432 -61.81791548295455 344.7875310724432 -58.78759765625Q344.7875310724432 -56.66634854403409 346.7269841974432 -55.63603071732955Q348.6664373224432 -54.605712890625 352.12107155539775 -54.24207652698864Q355.57570578835225 -53.87844016335227 359.8788174715909 -53.87844016335227H417.757568359375Q424.9696377840909 -53.87844016335227 436.30295632102275 -52.99965598366477Q447.63627485795456 -52.12087180397727 459.0908203125 -47.69664417613636Q470.5453657670455 -43.27241654829545 478.24234286221593 -33.06033602627841Q485.9393199573864 -22.848255504261363 485.9393199573864 -4.121049360795455Q485.9393199573864 16.84854403409091 474.5756946910511 30.272738370028414Q463.2120694247159 43.696932705965914 440.1514892578125 50.27267178622159Q417.0909090909091 56.84841086647727 381.5152033025568 56.84841086647727ZM380.8484552556818 10.727871981534092Q406.18190696022725 10.727871981534092 418.9093128551136 8.758134321732955Q431.63671875 6.788396661931818 436.0307506214489 3.151944247159091Q440.42478249289775 -0.48450816761363635 440.42478249289775 -5.272527521306818Q440.42478249289775 -11.090798117897728 437.1823175603693 -14.363569779829547Q433.9398526278409 -17.636341441761363 428.9700816761364 -19.06060236150568Q424.0003107244318 -20.48486328125 418.93959738991475 -20.727294921875Q413.87888405539775 -20.9697265625 410.1817737926136 -20.9697265625H361.6363858309659Q348.3028453480114 -16.242365056818183 343.363358931108 -12.181685014204547Q338.42387251420456 -8.12100497159091 338.42387251420456 -2.6663263494318183Q338.42387251420456 3.3337846235795454 343.7572576349432 6.152021928267045Q349.0906427556818 8.970259232954545 358.6361749822443 9.849065607244318Q368.1817072088068 10.727871981534092 380.8484552556818 10.727871981534092ZM386.9090465198864 -98.30268998579545Q400.545654296875 -98.30268998579545 408.27309348366475 -106.21185857599431Q416.00053267045456 -114.12102716619319 416.00053267045456 -127.818115234375Q416.00053267045456 -141.57581676136365 408.0003551136364 -150.06074662642047Q400.0001775568182 -158.54567649147728 386.36356977982956 -158.54567649147728Q372.7875310724432 -158.54567649147728 364.63584206321025 -150.00013316761363Q356.48415305397725 -141.45458984375 356.48415305397725 -127.99995561079545Q356.48415305397725 -119.0301846590909 360.1509121981534 -112.30284534801137Q363.81767134232956 -105.57550603693183 370.66630415482956 -101.93909801136364Q377.51493696732956 -98.30268998579545 386.9090465198864 -98.30268998579545Z M580.7879305752841 56.84841086647727Q548.5455211292614 56.84841086647727 529.8788840553977 51.78780850497159Q511.21224698153407 46.727206143465914 503.3637806285511 37.909035422585234Q495.5153142755682 29.090864701704547 495.5153142755682 17.636341441761363Q495.5153142755682 1.8181818181818183 508.2122802734375 -7.969715465198864Q520.9092462713068 -17.757612748579547 545.7577903053977 -21.697043678977273V-23.87890625Q526.606201171875 -23.87890625 516.1516668146306 -29.818248401988637Q505.6971324573863 -35.75759055397727 505.6971324573863 -46.72725053267045Q505.6971324573863 -56.969637784090914 515.33349609375 -64.96959339488637Q524.9698597301136 -72.96954900568183 547.2123357599431 -74.06059126420455V-76.84849964488636Q526.6061567826704 -81.21209161931819 514.9697931463068 -94.75755726207387Q503.3334295099432 -108.30302290482955 503.3334295099432 -129.21204723011363Q503.3334295099432 -147.87868430397728 513.0304066051136 -161.63625266335228Q522.7273837002841 -175.39382102272728 541.0606911399148 -183.15138938210228Q559.3939985795455 -190.90895774147728 585.1514781605114 -190.90895774147728H680.3635475852273V-149.8185369318182L615.3333407315341 -158.12155983664772V-155.03062855113637Q644.1210493607955 -150.90940163352272 654.6967884410511 -140.87905051491475Q665.2725275213068 -130.8486993963068 665.2725275213068 -116.90924627130683Q665.2725275213068 -103.03040660511364 656.969482421875 -92.09096457741478Q648.6664373224431 -81.1515225497159 631.6664484197443 -74.93937544389205Q614.6664595170455 -68.72722833806819 588.908935546875 -68.72722833806819Q581.2726162997159 -68.72722833806819 573.7575461647727 -69.3938876065341Q566.2424760298295 -70.060546875 560.303067294034 -71.51509232954545Q551.9997780539773 -68.3028897372159 548.0300181995738 -65.06040261008522Q544.0602583451704 -61.81791548295455 544.0602583451704 -58.78759765625Q544.0602583451704 -56.66634854403409 545.9997114701704 -55.63603071732955Q547.9391645951704 -54.605712890625 551.393798828125 -54.24207652698864Q554.8484330610795 -53.87844016335227 559.1515447443181 -53.87844016335227H617.0302956321023Q624.2423650568181 -53.87844016335227 635.57568359375 -52.99965598366477Q646.9090021306818 -52.12087180397727 658.3635475852273 -47.69664417613636Q669.8180930397727 -43.27241654829545 677.5150701349432 -33.06033602627841Q685.2120472301136 -22.848255504261363 685.2120472301136 -4.121049360795455Q685.2120472301136 16.84854403409091 673.8484219637784 30.272738370028414Q662.4847966974431 43.696932705965914 639.4242165305398 50.27267178622159Q616.3636363636364 56.84841086647727 580.7879305752841 56.84841086647727ZM580.1211825284091 10.727871981534092Q605.4546342329545 10.727871981534092 618.1820401278409 8.758134321732955Q630.9094460227273 6.788396661931818 635.3034778941761 3.151944247159091Q639.697509765625 -0.48450816761363635 639.697509765625 -5.272527521306818Q639.697509765625 -11.090798117897728 636.4550448330965 -14.363569779829547Q633.2125799005681 -17.636341441761363 628.2428089488635 -19.06060236150568Q623.273037997159 -20.48486328125 618.212324662642 -20.727294921875Q613.151611328125 -20.9697265625 609.4545010653409 -20.9697265625H560.9091131036931Q547.5755726207386 -16.242365056818183 542.6360862038352 -12.181685014204547Q537.6965997869318 -8.12100497159091 537.6965997869318 -2.6663263494318183Q537.6965997869318 3.3337846235795454 543.0299849076705 6.152021928267045Q548.3633700284091 8.970259232954545 557.9089022549716 9.849065607244318Q567.4544344815341 10.727871981534092 580.1211825284091 10.727871981534092ZM586.1817737926136 -98.30268998579545Q599.8183815696023 -98.30268998579545 607.545820756392 -106.21185857599431Q615.2732599431818 -114.12102716619319 615.2732599431818 -127.818115234375Q615.2732599431818 -141.57581676136365 607.2730823863636 -150.06074662642047Q599.2729048295455 -158.54567649147728 585.6362970525568 -158.54567649147728Q572.0602583451705 -158.54567649147728 563.9085693359375 -150.00013316761363Q555.7568803267045 -141.45458984375 555.7568803267045 -127.99995561079545Q555.7568803267045 -119.0301846590909 559.4236394708806 -112.30284534801137Q563.0903986150568 -105.57550603693183 569.9390314275568 -101.93909801136364Q576.7876642400568 -98.30268998579545 586.1817737926136 -98.30268998579545Z M772.121182528409 56.18175159801137Q760.4847301136364 56.18175159801137 747.302900834517 54.06050248579545Q734.1210715553976 51.93925337357955 721.4544566761363 47.33311878551136Q708.787841796875 42.72698419744318 698.2424760298295 35.63596413352273L712.3031560724431 -15.635786576704547Q724.6667036576704 -2.908469460227273 740.515147816051 2.303666548295454Q756.3635919744318 7.515802556818182 769.8182262073864 7.515802556818182Q789.0911310369318 7.515802556818182 801.576016512784 -0.39338822798295503Q814.0609019886364 -8.302579012784092 820.0911865234375 -22.93906471946023Q826.1214710582386 -37.57555042613637 826.1214710582386 -57.75743519176137L827.0306729403409 -93.818359375H823.8185591264204Q822.6063787286931 -67.5152254971591 814.6972323330965 -50.9697265625Q806.7880859375 -34.42422762784091 793.7577459161932 -26.727250532670453Q780.7274058948864 -19.0302734375 763.87890625 -19.0302734375Q742.9091796875 -19.0302734375 729.3031227805398 -29.696954900568183Q715.6970658735795 -40.36363636363637 708.9092018821023 -61.272705078125Q702.121337890625 -82.18177379261364 702.121337890625 -112.78770862926136V-190.90895774147728H754.3023792613636V-125.81773792613637Q754.3023792613636 -94.18128551136364 761.5448885830965 -79.4842529296875Q768.7873979048295 -64.78722034801136 784.4845525568181 -64.78722034801136Q792.8483220880681 -64.78722034801136 799.4545010653409 -68.9993896484375Q806.0606800426136 -73.21155894886364 810.4850186434659 -81.8177157315341Q814.9093572443181 -90.42387251420455 817.182140003551 -103.3937100497159Q819.454922762784 -116.36354758522728 819.454922762784 -133.51524769176137V-190.90895774147728H871.6359641335227V-55.999911221590914Q871.6359641335227 -38.30317826704545 868.181485262784 -21.69719904119318Q864.7270063920454 -5.091219815340909 857.3937544389204 8.999700372869318Q850.0605024857954 23.090620561079547 838.454512162642 33.72703968394886Q826.8485218394886 44.36345880681818 810.3939874822443 50.27260520241477Q793.939453125 56.18175159801137 772.121182528409 56.18175159801137Z"/></g>
</svg>